<svg version="1.1" id="SACCA-Logo" xmlns="http://www.w3.org/2000/svg" xmlns:xlink="http://www.w3.org/1999/xlink" x="0px" y="0px"
	 width="100%" height="100%" viewBox="0 0 145.975 144.981" enable-background="new 0 0 145.975 144.981"
	 xml:space="preserve">
<rect x="61.358" y="62.508" transform="matrix(0.7071 0.7071 -0.7071 0.7071 72.2878 -29.2707)" fill="#E60012" width="20.24" height="20.24"/>
<polygon fill="#E60012" points="24.949,49.532 74.48,0 108.764,34.283 96.93,46.116 72.127,21.314 34.674,58.769 "/>
<path fill="#E60012" d="M126.088,52.217l19.887,19.886l-18.789,18.789L80.033,43.737c0,0-4.727-2.745-8.555,1.037
	c-3.828,3.782-22.861,22.57-22.861,22.57l-3.477-3.477l23.605-23.363c0,0,8.174-6.466,15.373-0.854s26.84,26.84,26.84,26.84
	L126.088,52.217z"/>
<path fill="#E60012" d="M73.139,99.187c-4.758,3.294-8.295,1.099-8.295,1.099L19.031,54.351L0,73.384l20.008,20.008l15.066-15.067
	c0,0,16.35,16.714,23.426,24.278c8.418,7.442,16.104,1.22,16.104,1.22L99.43,79.484l-3.232-3.233"/>
<polygon fill="#E60012" points="37.23,110.614 71.598,144.981 111.125,105.453 101.973,96.299 71.711,125.905 46.34,100.854 "/>
</svg>