<svg xmlns="http://www.w3.org/2000/svg" class="svgicon hidden">
<defs>
<symbol id="shape-tag" viewBox="0 0 21.746 21.714" class="">
	<path class="p1" fill-rule="evenodd" clip-rule="evenodd" d="M20.029,4.587c1.356,2.599,0.947,5.898-1.229,8.074l-9.053,9.053L0,11.967
		l9.053-9.053c2.188-2.188,5.51-2.59,8.115-1.208l-1.981,1.981c-0.673,0.027-1.338,0.298-1.852,0.812
		c-1.085,1.085-1.085,2.843,0,3.927c1.085,1.085,2.843,1.085,3.928,0c0.522-0.521,0.792-1.2,0.812-1.884L20.029,4.587L20.029,4.587z"
		/>
	<rect class="r1" x="13.488" y="2.943" transform="matrix(0.7071 -0.7071 0.7071 0.7071 2.6113 13.8199)" fill-rule="evenodd" clip-rule="evenodd" width="8.999" height="1.629"/>
</symbol>
<symbol id="shape-writing" viewBox="0 0 228.034 220.947" class="">
	<path class="p1" d="M25.519,176.558c5.297-1.188,12.286-2.87,19.646-4.471l2.052-6.814c0.758-2.517,1.907-4.702,3.236-6.62
		c-8.952,1.874-17.761,4.047-24.09,5.48L25.519,176.558z"/>
	<path class="p2" d="M28.367,134.737l-0.81,11.863c11.438-2.637,30.887-7.731,44.537-8.935c3.047-2.814,6.193-5.727,9.456-8.763
		c-0.618-1.114-1.184-2.245-1.709-3.378C66.376,124.979,43.063,131.313,28.367,134.737z"/>
	<path class="p3" d="M29.513,117.993c11.532-2.734,31.536-8.169,44.945-9.089c-0.223-0.983-0.56-2.498-2.486-11.128
		c-13.158,1.444-31.093,6.346-41.689,8.881L29.513,117.993z"/>
	<path class="p4" d="M227.362,220.787l-92.53-7.239c-0.09,3.899,0.43,5.96-3.81,7.069c-1.69,0.44-32.311,0.44-34,0
		c-4.24-1.109-3.73-3.17-3.811-7.069l-92.54,7.239c-1.319-4.09-1.87,10.711,10-128.63c0.09-1.14,1.32-2.04,2.91-2.18l4.37-0.39
		c0,0,4.96-6.9,5.08-6.94c20.896-6.649,49.347-14.43,70.52-8.479c-2.095,2.355-5.314,6.014-6.96,7.979
		c-18.64-3.027-42.819,2.742-60.96,8.38c-1.59,0.5-2.72,1.92-2.84,3.58l-8.939,114.311c25.25-5.79,58.92-13.74,81.85-10.21
		c7.479,1.149,16.33,3.54,18.32,10.5c1.979-6.96,10.83-9.351,18.31-10.5c22.93-3.53,56.6,4.42,81.85,10.21l-8.899-113.931
		c-0.13-1.66-1.26-3.08-2.86-3.569c-7.819-2.41-15.13-4.36-21.96-5.851c2.18-2.52,4.351-5.08,6.5-7.68
		c5.59,1.43,11.49,3.14,17.73,5.14l5.39,7.061l4.38,0.39c1.59,0.14,2.811,1.04,2.91,2.18
		C229.232,231.498,228.682,216.697,227.362,220.787z"/>
	<path class="p5" d="M223.39,0c-25.268,0-50.169,11.437-59.842,18.996l-10.36,44.375l-0.858-34.891
		c-26.965,24.188-62.282,64.025-62.676,66.006c-1.616,8.096,2.862,20.209,6.283,27.851c-1.922-2.778-4.329-3.542-11.982-16.785
		c1.048,4.692,3.134,13.938,7.856,20.991C166.305,57.201,153.723,65.115,210.89,7.346C152.778,78.215,101.981,123.662,65.976,156.917
		c-3.51,3.241-7.738,6.435-9.185,11.238c3.657-0.737,6.646-2.89,9.227-5.108c12.621-10.843,18.657-16.423,32.868-29.781
		c2.646,1.258,4.921,1.732,7.007,1.732c3.694,0,6.797-1.484,10.313-2.729c-4.549-0.032-4.952-2.014-10.49-2.257
		c12.065-0.972,28.034-11.958,44.502-27.56l-17.109,1.508l22.532-6.789C187.645,65.148,215.124,23.053,223.39,0z"/>
</symbol>
<symbol id="shape-cart" viewBox="0 0 42.285 39.371">
	<path fill-rule="evenodd" clip-rule="evenodd" d="M34.441,32.753c1.822,0,3.309,1.486,3.309,3.309s-1.486,3.309-3.309,3.309
		s-3.309-1.486-3.309-3.309S32.619,32.753,34.441,32.753L34.441,32.753z"/>
	<path fill-rule="evenodd" clip-rule="evenodd" class="bg1" d="M34.441,35.121c0.518,0,0.941,0.423,0.941,0.941
		s-0.424,0.942-0.941,0.942c-0.52,0-0.941-0.423-0.941-0.942S33.922,35.121,34.441,35.121L34.441,35.121z"/>
	<path fill-rule="evenodd" clip-rule="evenodd" d="M15.275,32.753c-1.822,0-3.309,1.486-3.309,3.309s1.486,3.309,3.309,3.309
		s3.309-1.486,3.309-3.309S17.098,32.753,15.275,32.753z"/>
	<circle fill-rule="evenodd" clip-rule="evenodd" class="bg2" cx="15.275" cy="36.062" r="0.942"/>
	<path fill-rule="evenodd" clip-rule="evenodd" d="M14.053,29.072h23.609c0.943,0,1.715,0.772,1.715,1.716l0,0
		c0,0.944-0.771,1.717-1.715,1.717H11.08c-0.943,0-1.717-0.772-1.717-1.717l0,0c0-0.266,0.063-0.52,0.172-0.745
		c0.006-0.011,0.012-0.023,0.018-0.035c0.014-0.028,0.027-0.055,0.043-0.082l4.096-7.094L6.326,4.832L1.271,3.493
		c-0.912-0.242-1.457-1.19-1.213-2.102l0,0C0.303,0.479,1.248-0.064,2.16,0.178l5.639,1.494c0.393,0.052,0.76,0.237,1.035,0.528
		C9.027,2.4,9.17,2.646,9.25,2.914l1.914,4.68c0.057-0.006,0.111-0.009,0.17-0.009H38.58h0.291h3.414l-6.504,16.027
		c-0.223,0.639-0.814,1.11-1.516,1.153c-0.002,0-0.002,0-0.004,0c-0.004,0-0.01,0-0.016,0c-0.002,0-0.006,0-0.008,0
		c-0.012,0-0.021,0.001-0.033,0.001c-0.002,0-0.002,0-0.004,0c-0.031,0-0.063,0.001-0.094,0h-17.57L14.053,29.072L14.053,29.072z"/>
	<polygon fill-rule="evenodd" clip-rule="evenodd" class="bg3" points="37.188,11.017 33,21.336 16.789,21.336 12.564,11.017 
		37.188,11.017 "/>
	<path fill-rule="evenodd" clip-rule="evenodd" d="M37.361,13.172c0,0.628,0,1.257,0,1.886c-8.225,0-16.451,0-24.678,0
		c0-0.628,0-1.257,0-1.886C20.91,13.172,29.137,13.172,37.361,13.172L37.361,13.172z"/>
	<polygon fill-rule="evenodd" clip-rule="evenodd" points="24.777,0 33.713,8.935 15.842,8.935 24.777,0 "/>
	<path fill-rule="evenodd" clip-rule="evenodd" d="M37.361,17.242c0,0.628,0,1.257,0,1.886c-8.225,0-16.451,0-24.678,0
		c0-0.629,0-1.258,0-1.886C20.91,17.242,29.137,17.242,37.361,17.242L37.361,17.242z"/>
</symbol>
<symbol id="shape-mail" viewBox="0 0 18.887 13.418">
	<polygon class="p1" points="1.771,0 17.117,0 14.705,2.313 9.443,7.359 4.184,2.313 1.771,0 "/>
	<polygon class="p2" points="18.887,0.975 16.043,3.703 10.113,9.393 9.443,10.033 8.775,9.393 2.844,3.703 0,0.975 0,11.885 4.654,7.432 
		5.984,8.822 1.182,13.418 17.34,13.418 12.535,8.822 13.865,7.432 18.887,12.236 "/>
</symbol>
<symbol id="shape-phone" viewBox="0 0 10.701 22.118">
	<path class="p1" d="M9.65,21.535l1.049-0.252c0.061-2.559-1.526-5.908-1.984-6.166l-1.113,0.268
		c0.238,1.01,0.515,2.018,0.843,3.025C8.785,19.457,9.183,20.5,9.65,21.535L9.65,21.535z"/>
	<path class="p2" d="M7.826,21.975c-1.676,0.375-2.864,0.014-3.567-1.082c-0.167-0.299-0.333-0.598-0.5-0.896
		c-0.001-0.031-0.004-0.064-0.007-0.096c-2.438-4.924-3.826-10.1-3.749-15.627V4.271l0.001-0.014
		c0.004-0.316,0.014-0.635,0.027-0.955h0.008l0.002-0.057c0.127-1.297,1.023-2.158,2.686-2.584l0.975-0.234
		c0.059,1.127,0.18,2.229,0.351,3.314C4.217,4.785,4.43,5.816,4.68,6.836L3.212,7.189c0.375,3.037,1.103,5.943,2.121,8.74
		l1.449-0.348c0.243,1.037,0.525,2.068,0.858,3.09c0.334,1.027,0.722,2.051,1.173,3.064L7.826,21.975L7.826,21.975z"/>
	<path class="p3" d="M5.5,6.639l0.959-0.23C6.863,5.586,6.364,1.207,5.48,0L4.539,0.227c0.053,1.152,0.174,2.277,0.348,3.383
		C5.05,4.639,5.258,5.646,5.5,6.639z"/>
</symbol>
<symbol id="shape-building" viewBox="0 0 18.957 16.531">
	<path d="M17.205,15.363V5.705H9.703V0H1.932v15.363H0v1.168h1.932h7.008h0.764h7.502h1.752v-1.168H17.205z M5.463,1.344
		c0.19,0,0.381,0,0.571,0c0,0.285,0,0.572,0,0.859c-0.19,0-0.381,0-0.571,0C5.463,1.916,5.463,1.629,5.463,1.344z M3.83,13.836H3.259
		v-0.859H3.83V13.836z M3.83,11.897c-0.189,0-0.381,0-0.571,0c0-0.286,0-0.573,0-0.86c0.19,0,0.382,0,0.571,0
		C3.83,11.324,3.83,11.611,3.83,11.897z M3.83,9.959c-0.189,0-0.381,0-0.571,0c0-0.287,0-0.574,0-0.86c0.19,0,0.382,0,0.571,0
		C3.83,9.385,3.83,9.672,3.83,9.959z M3.83,8.02c-0.189,0-0.381,0-0.571,0c0-0.287,0-0.573,0-0.859c0.19,0,0.382,0,0.571,0
		C3.83,7.446,3.83,7.732,3.83,8.02z M3.83,6.08c-0.189,0-0.381,0-0.571,0c0-0.285,0-0.572,0-0.859c0.19,0,0.382,0,0.571,0
		C3.83,5.508,3.83,5.795,3.83,6.08z M3.83,4.142c-0.189,0-0.381,0-0.571,0c0-0.286,0-0.573,0-0.86c0.19,0,0.382,0,0.571,0
		C3.83,3.568,3.83,3.855,3.83,4.142z M3.83,2.203H3.259V1.344H3.83V2.203z M4.932,13.836c-0.189,0-0.381,0-0.571,0
		c0-0.286,0-0.572,0-0.859c0.19,0,0.382,0,0.571,0C4.932,13.264,4.932,13.55,4.932,13.836z M4.932,11.897c-0.189,0-0.381,0-0.57,0
		c0-0.286,0-0.573,0-0.86c0.189,0,0.381,0,0.57,0C4.932,11.324,4.932,11.611,4.932,11.897z M4.932,9.959c-0.189,0-0.381,0-0.57,0
		c0-0.287,0-0.574,0-0.86c0.189,0,0.381,0,0.57,0C4.932,9.385,4.932,9.672,4.932,9.959z M4.932,8.02c-0.189,0-0.381,0-0.57,0
		c0-0.287,0-0.573,0-0.859c0.189,0,0.381,0,0.57,0C4.932,7.446,4.932,7.732,4.932,8.02z M4.932,6.08c-0.189,0-0.381,0-0.57,0
		c0-0.285,0-0.572,0-0.859c0.189,0,0.381,0,0.57,0C4.932,5.508,4.932,5.795,4.932,6.08z M4.932,4.142c-0.189,0-0.381,0-0.57,0
		c0-0.286,0-0.573,0-0.86c0.189,0,0.381,0,0.57,0C4.932,3.568,4.932,3.855,4.932,4.142z M4.932,2.203c-0.189,0-0.381,0-0.571,0
		c0-0.287,0-0.574,0-0.859c0.19,0,0.382,0,0.571,0C4.932,1.629,4.932,1.916,4.932,2.203z M6.034,13.836c-0.19,0-0.381,0-0.571,0
		c0-0.286,0-0.572,0-0.859c0.19,0,0.381,0,0.571,0C6.034,13.264,6.034,13.55,6.034,13.836z M6.035,11.897c-0.191,0-0.382,0-0.572,0
		c0-0.286,0-0.573,0-0.86c0.19,0,0.381,0,0.572,0C6.035,11.324,6.035,11.611,6.035,11.897z M6.035,9.959c-0.191,0-0.382,0-0.572,0
		c0-0.287,0-0.574,0-0.86c0.19,0,0.381,0,0.572,0C6.035,9.385,6.035,9.672,6.035,9.959z M6.035,8.02c-0.191,0-0.382,0-0.572,0
		c0-0.287,0-0.573,0-0.859c0.19,0,0.381,0,0.572,0C6.035,7.446,6.035,7.732,6.035,8.02z M6.035,6.08c-0.191,0-0.382,0-0.572,0
		c0-0.285,0-0.572,0-0.859c0.19,0,0.381,0,0.572,0C6.035,5.508,6.035,5.795,6.035,6.08z M6.035,4.142c-0.191,0-0.382,0-0.572,0
		c0-0.286,0-0.573,0-0.86c0.19,0,0.381,0,0.572,0C6.035,3.568,6.035,3.855,6.035,4.142z M7.137,13.836c-0.191,0-0.381,0-0.572,0
		c0-0.286,0-0.572,0-0.859c0.191,0,0.381,0,0.572,0C7.137,13.264,7.137,13.55,7.137,13.836z M7.137,11.897c-0.191,0-0.381,0-0.572,0
		c0-0.286,0-0.573,0-0.86c0.191,0,0.381,0,0.572,0C7.137,11.324,7.137,11.611,7.137,11.897z M7.137,9.959c-0.191,0-0.381,0-0.572,0
		c0-0.287,0-0.574,0-0.86c0.191,0,0.381,0,0.572,0C7.137,9.385,7.137,9.672,7.137,9.959z M7.137,8.02c-0.191,0-0.381,0-0.572,0
		c0-0.287,0-0.573,0-0.859c0.191,0,0.381,0,0.572,0C7.137,7.446,7.137,7.732,7.137,8.02z M7.137,6.08c-0.191,0-0.381,0-0.572,0
		c0-0.285,0-0.572,0-0.859c0.191,0,0.381,0,0.572,0C7.137,5.508,7.137,5.795,7.137,6.08z M7.137,4.142c-0.191,0-0.381,0-0.572,0
		c0-0.286,0-0.573,0-0.86c0.191,0,0.381,0,0.572,0C7.137,3.568,7.137,3.855,7.137,4.142z M7.137,2.203c-0.191,0-0.381,0-0.572,0
		c0-0.287,0-0.574,0-0.859c0.191,0,0.381,0,0.572,0C7.137,1.629,7.137,1.916,7.137,2.203z M8.238,13.836H7.666v-0.859h0.572V13.836z
		 M8.238,11.897c-0.19,0-0.381,0-0.572,0c0-0.286,0-0.573,0-0.86c0.191,0,0.382,0,0.572,0C8.238,11.324,8.238,11.611,8.238,11.897z
		 M8.238,9.959c-0.19,0-0.381,0-0.572,0c0-0.287,0-0.574,0-0.86c0.191,0,0.382,0,0.572,0C8.238,9.385,8.238,9.672,8.238,9.959z
		 M8.238,8.02c-0.19,0-0.381,0-0.572,0c0-0.287,0-0.573,0-0.859c0.191,0,0.382,0,0.572,0C8.238,7.446,8.238,7.732,8.238,8.02z
		 M8.238,6.08c-0.19,0-0.381,0-0.572,0c0-0.285,0-0.572,0-0.859c0.191,0,0.382,0,0.572,0C8.238,5.508,8.238,5.795,8.238,6.08z
		 M8.238,4.142c-0.19,0-0.381,0-0.572,0c0-0.286,0-0.573,0-0.86c0.191,0,0.382,0,0.572,0C8.238,3.568,8.238,3.855,8.238,4.142z
		 M8.238,2.203H7.666V1.344h0.572V2.203z M15.992,13.836h-5.549v-0.719h5.549V13.836z M15.992,12.247c-1.85,0-3.699,0-5.549,0
		c0-0.239,0-0.479,0-0.718c1.85,0,3.699,0,5.549,0C15.992,11.768,15.992,12.008,15.992,12.247z M15.992,10.658
		c-1.85,0-3.699,0-5.549,0c0-0.24,0-0.479,0-0.719c1.85,0,3.699,0,5.549,0C15.992,10.179,15.992,10.418,15.992,10.658z M15.992,9.068
		c-1.85,0-3.699,0-5.549,0c0-0.239,0-0.479,0-0.719c1.85,0,3.699,0,5.549,0C15.992,8.59,15.992,8.829,15.992,9.068z M15.992,7.479
		h-5.549V6.762h5.549V7.479z"/>
</symbol>
<symbol id="shape-hrtime" viewBox="0 0 28.666 24.202">
	<path d="M12.102,0c3.341,0,6.366,1.354,8.556,3.544c1.1,1.1,1.987,2.409,2.6,3.862h-3.309c-0.388-0.646-0.853-1.242-1.382-1.771
		c-1.653-1.655-3.94-2.677-6.465-2.677c-2.525,0-4.811,1.022-6.466,2.677c-1.654,1.653-2.677,3.939-2.677,6.466
		c0,2.524,1.022,4.81,2.677,6.465c1.655,1.654,3.94,2.679,6.466,2.679c2.524,0,4.812-1.024,6.465-2.679
		c0.096-0.096,0.188-0.192,0.28-0.292h3.664c-0.518,0.871-1.142,1.672-1.854,2.383c-2.189,2.19-5.215,3.545-8.556,3.545
		c-3.343,0-6.367-1.354-8.558-3.545C1.354,18.468,0,15.441,0,12.102c0-3.343,1.354-6.367,3.544-8.558C5.734,1.354,8.759,0,12.102,0
		L12.102,0z"/>
	<path d="M9.199,8.399L8.238,9.431l2.7,2.518c-0.013,0.082-0.019,0.169-0.016,0.256c0.01,0.255,0.094,0.49,0.232,0.685l-0.695,0.83
		l0.423,0.354l0.686-0.816c0.193,0.108,0.418,0.165,0.655,0.157c0.086-0.004,0.17-0.015,0.251-0.035l0.288,0.271l0.961-1.031
		l-0.302-0.282c0.01-0.073,0.014-0.146,0.012-0.224c-0.011-0.284-0.114-0.543-0.28-0.746l2.739-3.27l-0.425-0.354l-2.75,3.281
		c-0.177-0.085-0.375-0.129-0.586-0.121c-0.074,0.002-0.148,0.013-0.219,0.027L9.199,8.399L9.199,8.399z"/>
	<polygon points="15.964,15.883 16.986,9.401 18.73,9.401 18.328,11.902 20.595,11.902 20.989,9.401 22.737,9.401 21.711,15.883 
		19.962,15.883 20.378,13.235 18.12,13.235 17.704,15.883 "/>
	<path d="M28.186,12.645c0.32-0.362,0.48-0.812,0.48-1.349c0-0.39-0.084-0.724-0.253-1.003c-0.168-0.278-0.416-0.495-0.743-0.648
		c-0.187-0.089-0.406-0.151-0.66-0.188c-0.254-0.036-0.641-0.055-1.16-0.055h-1.727l-1.022,6.481h1.722l0.39-2.475l1.253,2.475h1.976
		l-1.576-2.559C27.425,13.232,27.865,13.006,28.186,12.645z M25.921,12.363h-0.545l0.271-1.705h0.257
		c0.378,0,0.652,0.063,0.823,0.188c0.171,0.125,0.257,0.327,0.257,0.604c0,0.295-0.092,0.521-0.274,0.677
		C26.525,12.285,26.263,12.363,25.921,12.363z"/>
</symbol>
<symbol id="shape-tax" viewBox="0 0 29.979 21.844">
	<path fill-rule="evenodd" clip-rule="evenodd" d="M4.487,2.338h20.838v12.635H4.487V2.338L4.487,2.338z M6.866,11.422v1.362H23.56
		v-1.362H6.866L6.866,11.422z M13.084,8.1v1.363H23.56V8.1H13.084L13.084,8.1z M13.084,4.863v1.363H23.56V4.863H13.084L13.084,4.863z
		 M6.866,4.445v5.451h4.43V4.445H6.866L6.866,4.445z M13.304,18.343h3.194l1.109,1.85h-5.245L13.304,18.343L13.304,18.343z M4.599,0
		c-1.22,0-2.217,0.997-2.217,2.217v12.418c0,1.008,0.683,1.865,1.609,2.131l0,0L0,19.914v1.93h29.979v-1.93l-4.278-3.116
		c0.99-0.222,1.735-1.109,1.735-2.163V2.217C27.437,0.997,26.439,0,25.22,0H4.599z"/>
</symbol>
<symbol id="shape-tag" viewBox="0 0 21.746 21.714">
	<path class="p1" fill-rule="evenodd" clip-rule="evenodd" d="M20.029,4.587c1.356,2.599,0.947,5.898-1.229,8.074l-9.053,9.053L0,11.967
		l9.053-9.053c2.188-2.188,5.51-2.59,8.115-1.208l-1.981,1.981c-0.673,0.027-1.338,0.298-1.852,0.812
		c-1.085,1.085-1.085,2.843,0,3.927c1.085,1.085,2.843,1.085,3.928,0c0.522-0.521,0.792-1.2,0.812-1.884L20.029,4.587L20.029,4.587z"
		/>
	<rect class="r1" x="13.488" y="2.943" transform="matrix(0.7071 -0.7071 0.7071 0.7071 2.6113 13.8199)" fill-rule="evenodd" clip-rule="evenodd" width="8.999" height="1.629"/>
</symbol>
<symbol id="shape-people" viewBox="0 0 14.761 16.565">
	<path fill-rule="evenodd" clip-rule="evenodd" d="M5.142,5.544c0.286,1.537,0.85,2.951,2.241,3.091l0,0
	c0.017,0,0.082-0.001,0.162-0.001c0.066,0,0.083,0.006,0.1,0.003c1.403-0.187,1.884-1.625,2.118-3.172l-0.1,0.005
	c0.098-0.597,0.111-1.199-0.08-1.813c-0.41,0.158-2.077,0.857-4.213-0.012c-0.32,0.741-0.3,1.174-0.177,1.894L5.142,5.544
	L5.142,5.544z M7.142,10.561l-0.236,0.433l0.282,0.209l-0.565,2.823c-0.817-1.088-1.631-2.819-1.777-4.352
	c-1.478,0.472-2.825,1.093-4.064,1.837C0.09,12.864,0.067,14.39,0,15.596c5.124,1.286,10.045,1.297,14.761,0
	c-0.067-1.206-0.09-2.732-0.781-4.085c-1.119-0.764-2.47-1.378-4.064-1.837c-0.138,1.453-0.652,2.994-1.481,4.161l-0.527-2.631
	l0.282-0.209l-0.236-0.433H7.142L7.142,10.561z M10.953,3.567l0.005,0l-0.023,0.226l0,0.005c-0.008,0.091-0.017,0.183-0.027,0.276
	l-0.017,0.179c0.072,0.01,0.139,0.028,0.195,0.062h0.001c0.201,0.117,0.254,0.448,0.235,0.819c-0.024,0.438-0.132,1.006-0.185,1.121
	c-0.111,0.242-0.429,0.439-0.642,0.549C10.121,8.219,9.392,9.394,7.771,9.61C7.748,9.613,7.645,9.614,7.544,9.614
	c-0.109,0-0.238-0.001-0.254-0.003H7.287C5.683,9.449,4.887,8.298,4.455,6.896C4.251,6.798,3.86,6.582,3.734,6.308
	C3.681,6.193,3.573,5.625,3.549,5.187c-0.02-0.37,0.034-0.702,0.236-0.819c0.055-0.032,0.12-0.05,0.189-0.06
	C3.95,4.084,3.927,3.866,3.906,3.655L3.897,3.568l0.035-0.003C3.87,2.549,4.045,1.807,4.442,1.259
	c1.466-2.023,5.525-1.344,6.266,0.184C10.97,1.981,11.01,2.738,10.953,3.567z"/>
</symbol>
<symbol id="shape-magnifier" viewBox="0 0 16.653 17.896">
	<path fill-rule="evenodd" clip-rule="evenodd" d="M2.158,1.516C3.46,0.391,5.095-0.1,6.685,0.017
	c1.591,0.116,3.137,0.839,4.262,2.141c1.125,1.302,1.615,2.937,1.499,4.527c-0.099,1.352-0.636,2.672-1.594,3.729l0.764,0.885
	l0.318-0.275c0.312-0.27,0.787-0.234,1.055,0.076l3.482,4.031c0.269,0.311,0.234,0.787-0.077,1.056l-1.769,1.528
	c-0.312,0.27-0.787,0.234-1.056-0.077l-3.482-4.03c-0.269-0.313-0.234-0.787,0.077-1.056l0.335-0.29l-0.76-0.879
	c-1.193,0.814-2.594,1.164-3.962,1.063c-1.59-0.116-3.137-0.839-4.262-2.142C0.391,9.002-0.1,7.368,0.017,5.777
	C0.133,4.187,0.856,2.641,2.158,1.516L2.158,1.516z M6.491,2.671C5.581,2.604,4.644,2.885,3.898,3.531
	c-0.746,0.644-1.16,1.529-1.227,2.44S2.886,7.818,3.53,8.565c0.644,0.746,1.53,1.159,2.441,1.226
	c0.911,0.067,1.848-0.214,2.594-0.858s1.16-1.53,1.227-2.44c0.066-0.911-0.215-1.848-0.859-2.594
	C8.288,3.152,7.402,2.737,6.491,2.671z"/>
</symbol>
<symbol id="shape-download" viewBox="0 0 17.252 21.545">
	<polygon fill-rule="evenodd" clip-rule="evenodd" points="3.849,8.962 3.849,9.857 13.104,9.857 13.104,8.962 3.849,8.962 "/>
	<polygon fill-rule="evenodd" clip-rule="evenodd" points="3.849,6.601 3.849,7.495 13.104,7.495 13.104,6.601 3.849,6.601 "/>
	<polygon fill-rule="evenodd" clip-rule="evenodd" points="3.849,4.185 3.849,5.08 9.711,5.08 9.711,4.185 3.849,4.185 "/>
	<polygon fill-rule="evenodd" clip-rule="evenodd" points="7.477,11.494 3.37,11.494 3.37,16.52 1.316,16.52 5.423,21.545 
		9.529,16.52 7.477,16.52 7.477,11.494 "/>
	<path fill-rule="evenodd" clip-rule="evenodd" d="M2.654,0h9.344h0.407l0.302,0.288l4.229,4.049l0.316,0.303v0.435v12.78
		c0,0.73-0.299,1.395-0.779,1.875l-0.002-0.002c-0.482,0.481-1.146,0.781-1.873,0.781H7.541l1.576-2.053h5.48
		c0.167,0,0.317-0.066,0.424-0.174v-0.004c0.11-0.109,0.179-0.26,0.179-0.424V5.821l-3.649-0.306l-0.395-0.033l0.02-0.395
		l0.148-3.036h-8.67c-0.164,0-0.314,0.068-0.425,0.178H2.226C2.119,2.337,2.052,2.487,2.052,2.654v12.858H0V2.654
		C0,1.927,0.299,1.264,0.781,0.78L0.779,0.778C1.26,0.298,1.924,0,2.654,0L2.654,0z M14.617,4.95l-2.498-2.393l-0.107,2.174
		L14.617,4.95z"/>
</symbol>
</defs>
</svg>