<?xml version="1.0" encoding="utf-8"?>
<!-- Generator: Adobe Illustrator 16.0.0, SVG Export Plug-In . SVG Version: 6.00 Build 0)  -->
<!DOCTYPE svg PUBLIC "-//W3C//DTD SVG 1.1//EN" "http://www.w3.org/Graphics/SVG/1.1/DTD/svg11.dtd">
<svg version="1.1" id="Layer_1" xmlns="http://www.w3.org/2000/svg" xmlns:xlink="http://www.w3.org/1999/xlink" x="0px" y="0px"
	 width="29.979px" height="21.844px" viewBox="0 0 29.979 21.844" enable-background="new 0 0 29.979 21.844" xml:space="preserve">
<path fill-rule="evenodd" clip-rule="evenodd" d="M4.487,2.338h20.838v12.635H4.487V2.338L4.487,2.338z M6.866,11.422v1.362H23.56
	v-1.362H6.866L6.866,11.422z M13.084,8.1v1.363H23.56V8.1H13.084L13.084,8.1z M13.084,4.863v1.363H23.56V4.863H13.084L13.084,4.863z
	 M6.866,4.445v5.451h4.43V4.445H6.866L6.866,4.445z M13.304,18.343h3.194l1.109,1.85h-5.245L13.304,18.343L13.304,18.343z M4.599,0
	c-1.22,0-2.217,0.997-2.217,2.217v12.418c0,1.008,0.683,1.865,1.609,2.131l0,0L0,19.914v1.93h29.979v-1.93l-4.278-3.116
	c0.99-0.222,1.735-1.109,1.735-2.163V2.217C27.437,0.997,26.439,0,25.22,0H4.599z"/>
</svg>
