<?xml version="1.0" encoding="utf-8"?>
<!-- Generator: Adobe Illustrator 16.0.0, SVG Export Plug-In . SVG Version: 6.00 Build 0)  -->
<!DOCTYPE svg PUBLIC "-//W3C//DTD SVG 1.1//EN" "http://www.w3.org/Graphics/SVG/1.1/DTD/svg11.dtd">
<svg version="1.1" id="Layer_1" xmlns="http://www.w3.org/2000/svg" xmlns:xlink="http://www.w3.org/1999/xlink" x="0px" y="0px"
	 width="28.666px" height="24.202px" viewBox="0 0 28.666 24.202" enable-background="new 0 0 28.666 24.202" xml:space="preserve">
<path d="M12.102,0c3.341,0,6.366,1.354,8.556,3.544c1.1,1.1,1.987,2.409,2.6,3.862h-3.309c-0.388-0.646-0.853-1.242-1.382-1.771
	c-1.653-1.655-3.94-2.677-6.465-2.677c-2.525,0-4.811,1.022-6.466,2.677c-1.654,1.653-2.677,3.939-2.677,6.466
	c0,2.524,1.022,4.81,2.677,6.465c1.655,1.654,3.94,2.679,6.466,2.679c2.524,0,4.812-1.024,6.465-2.679
	c0.096-0.096,0.188-0.192,0.28-0.292h3.664c-0.518,0.871-1.142,1.672-1.854,2.383c-2.189,2.19-5.215,3.545-8.556,3.545
	c-3.343,0-6.367-1.354-8.558-3.545C1.354,18.468,0,15.441,0,12.102c0-3.343,1.354-6.367,3.544-8.558C5.734,1.354,8.759,0,12.102,0
	L12.102,0z"/>
<path d="M9.199,8.399L8.238,9.431l2.7,2.518c-0.013,0.082-0.019,0.169-0.016,0.256c0.01,0.255,0.094,0.49,0.232,0.685l-0.695,0.83
	l0.423,0.354l0.686-0.816c0.193,0.108,0.418,0.165,0.655,0.157c0.086-0.004,0.17-0.015,0.251-0.035l0.288,0.271l0.961-1.031
	l-0.302-0.282c0.01-0.073,0.014-0.146,0.012-0.224c-0.011-0.284-0.114-0.543-0.28-0.746l2.739-3.27l-0.425-0.354l-2.75,3.281
	c-0.177-0.085-0.375-0.129-0.586-0.121c-0.074,0.002-0.148,0.013-0.219,0.027L9.199,8.399L9.199,8.399z"/>
<polygon points="15.964,15.883 16.986,9.401 18.73,9.401 18.328,11.902 20.595,11.902 20.989,9.401 22.737,9.401 21.711,15.883 
	19.962,15.883 20.378,13.235 18.12,13.235 17.704,15.883 "/>
<path d="M28.186,12.645c0.32-0.362,0.48-0.812,0.48-1.349c0-0.39-0.084-0.724-0.253-1.003c-0.168-0.278-0.416-0.495-0.743-0.648
	c-0.187-0.089-0.406-0.151-0.66-0.188c-0.254-0.036-0.641-0.055-1.16-0.055h-1.727l-1.022,6.481h1.722l0.39-2.475l1.253,2.475h1.976
	l-1.576-2.559C27.425,13.232,27.865,13.006,28.186,12.645z M25.921,12.363h-0.545l0.271-1.705h0.257
	c0.378,0,0.652,0.063,0.823,0.188c0.171,0.125,0.257,0.327,0.257,0.604c0,0.295-0.092,0.521-0.274,0.677
	C26.525,12.285,26.263,12.363,25.921,12.363z"/>
</svg>
