<?xml version="1.0" encoding="utf-8"?>
<!-- Generator: Adobe Illustrator 16.0.0, SVG Export Plug-In . SVG Version: 6.00 Build 0)  -->
<!DOCTYPE svg PUBLIC "-//W3C//DTD SVG 1.1//EN" "http://www.w3.org/Graphics/SVG/1.1/DTD/svg11.dtd">
<svg version="1.1" id="Layer_1" xmlns="http://www.w3.org/2000/svg" xmlns:xlink="http://www.w3.org/1999/xlink" x="0px" y="0px"
	 width="18.957px" height="16.531px" viewBox="0 0 18.957 16.531" enable-background="new 0 0 18.957 16.531" xml:space="preserve">
<path d="M17.205,15.363V5.705H9.703V0H1.932v15.363H0v1.168h1.932h7.008h0.764h7.502h1.752v-1.168H17.205z M5.463,1.344
	c0.19,0,0.381,0,0.571,0c0,0.285,0,0.572,0,0.859c-0.19,0-0.381,0-0.571,0C5.463,1.916,5.463,1.629,5.463,1.344z M3.83,13.836H3.259
	v-0.859H3.83V13.836z M3.83,11.897c-0.189,0-0.381,0-0.571,0c0-0.286,0-0.573,0-0.86c0.19,0,0.382,0,0.571,0
	C3.83,11.324,3.83,11.611,3.83,11.897z M3.83,9.959c-0.189,0-0.381,0-0.571,0c0-0.287,0-0.574,0-0.86c0.19,0,0.382,0,0.571,0
	C3.83,9.385,3.83,9.672,3.83,9.959z M3.83,8.02c-0.189,0-0.381,0-0.571,0c0-0.287,0-0.573,0-0.859c0.19,0,0.382,0,0.571,0
	C3.83,7.446,3.83,7.732,3.83,8.02z M3.83,6.08c-0.189,0-0.381,0-0.571,0c0-0.285,0-0.572,0-0.859c0.19,0,0.382,0,0.571,0
	C3.83,5.508,3.83,5.795,3.83,6.08z M3.83,4.142c-0.189,0-0.381,0-0.571,0c0-0.286,0-0.573,0-0.86c0.19,0,0.382,0,0.571,0
	C3.83,3.568,3.83,3.855,3.83,4.142z M3.83,2.203H3.259V1.344H3.83V2.203z M4.932,13.836c-0.189,0-0.381,0-0.571,0
	c0-0.286,0-0.572,0-0.859c0.19,0,0.382,0,0.571,0C4.932,13.264,4.932,13.55,4.932,13.836z M4.932,11.897c-0.189,0-0.381,0-0.57,0
	c0-0.286,0-0.573,0-0.86c0.189,0,0.381,0,0.57,0C4.932,11.324,4.932,11.611,4.932,11.897z M4.932,9.959c-0.189,0-0.381,0-0.57,0
	c0-0.287,0-0.574,0-0.86c0.189,0,0.381,0,0.57,0C4.932,9.385,4.932,9.672,4.932,9.959z M4.932,8.02c-0.189,0-0.381,0-0.57,0
	c0-0.287,0-0.573,0-0.859c0.189,0,0.381,0,0.57,0C4.932,7.446,4.932,7.732,4.932,8.02z M4.932,6.08c-0.189,0-0.381,0-0.57,0
	c0-0.285,0-0.572,0-0.859c0.189,0,0.381,0,0.57,0C4.932,5.508,4.932,5.795,4.932,6.08z M4.932,4.142c-0.189,0-0.381,0-0.57,0
	c0-0.286,0-0.573,0-0.86c0.189,0,0.381,0,0.57,0C4.932,3.568,4.932,3.855,4.932,4.142z M4.932,2.203c-0.189,0-0.381,0-0.571,0
	c0-0.287,0-0.574,0-0.859c0.19,0,0.382,0,0.571,0C4.932,1.629,4.932,1.916,4.932,2.203z M6.034,13.836c-0.19,0-0.381,0-0.571,0
	c0-0.286,0-0.572,0-0.859c0.19,0,0.381,0,0.571,0C6.034,13.264,6.034,13.55,6.034,13.836z M6.035,11.897c-0.191,0-0.382,0-0.572,0
	c0-0.286,0-0.573,0-0.86c0.19,0,0.381,0,0.572,0C6.035,11.324,6.035,11.611,6.035,11.897z M6.035,9.959c-0.191,0-0.382,0-0.572,0
	c0-0.287,0-0.574,0-0.86c0.19,0,0.381,0,0.572,0C6.035,9.385,6.035,9.672,6.035,9.959z M6.035,8.02c-0.191,0-0.382,0-0.572,0
	c0-0.287,0-0.573,0-0.859c0.19,0,0.381,0,0.572,0C6.035,7.446,6.035,7.732,6.035,8.02z M6.035,6.08c-0.191,0-0.382,0-0.572,0
	c0-0.285,0-0.572,0-0.859c0.19,0,0.381,0,0.572,0C6.035,5.508,6.035,5.795,6.035,6.08z M6.035,4.142c-0.191,0-0.382,0-0.572,0
	c0-0.286,0-0.573,0-0.86c0.19,0,0.381,0,0.572,0C6.035,3.568,6.035,3.855,6.035,4.142z M7.137,13.836c-0.191,0-0.381,0-0.572,0
	c0-0.286,0-0.572,0-0.859c0.191,0,0.381,0,0.572,0C7.137,13.264,7.137,13.55,7.137,13.836z M7.137,11.897c-0.191,0-0.381,0-0.572,0
	c0-0.286,0-0.573,0-0.86c0.191,0,0.381,0,0.572,0C7.137,11.324,7.137,11.611,7.137,11.897z M7.137,9.959c-0.191,0-0.381,0-0.572,0
	c0-0.287,0-0.574,0-0.86c0.191,0,0.381,0,0.572,0C7.137,9.385,7.137,9.672,7.137,9.959z M7.137,8.02c-0.191,0-0.381,0-0.572,0
	c0-0.287,0-0.573,0-0.859c0.191,0,0.381,0,0.572,0C7.137,7.446,7.137,7.732,7.137,8.02z M7.137,6.08c-0.191,0-0.381,0-0.572,0
	c0-0.285,0-0.572,0-0.859c0.191,0,0.381,0,0.572,0C7.137,5.508,7.137,5.795,7.137,6.08z M7.137,4.142c-0.191,0-0.381,0-0.572,0
	c0-0.286,0-0.573,0-0.86c0.191,0,0.381,0,0.572,0C7.137,3.568,7.137,3.855,7.137,4.142z M7.137,2.203c-0.191,0-0.381,0-0.572,0
	c0-0.287,0-0.574,0-0.859c0.191,0,0.381,0,0.572,0C7.137,1.629,7.137,1.916,7.137,2.203z M8.238,13.836H7.666v-0.859h0.572V13.836z
	 M8.238,11.897c-0.19,0-0.381,0-0.572,0c0-0.286,0-0.573,0-0.86c0.191,0,0.382,0,0.572,0C8.238,11.324,8.238,11.611,8.238,11.897z
	 M8.238,9.959c-0.19,0-0.381,0-0.572,0c0-0.287,0-0.574,0-0.86c0.191,0,0.382,0,0.572,0C8.238,9.385,8.238,9.672,8.238,9.959z
	 M8.238,8.02c-0.19,0-0.381,0-0.572,0c0-0.287,0-0.573,0-0.859c0.191,0,0.382,0,0.572,0C8.238,7.446,8.238,7.732,8.238,8.02z
	 M8.238,6.08c-0.19,0-0.381,0-0.572,0c0-0.285,0-0.572,0-0.859c0.191,0,0.382,0,0.572,0C8.238,5.508,8.238,5.795,8.238,6.08z
	 M8.238,4.142c-0.19,0-0.381,0-0.572,0c0-0.286,0-0.573,0-0.86c0.191,0,0.382,0,0.572,0C8.238,3.568,8.238,3.855,8.238,4.142z
	 M8.238,2.203H7.666V1.344h0.572V2.203z M15.992,13.836h-5.549v-0.719h5.549V13.836z M15.992,12.247c-1.85,0-3.699,0-5.549,0
	c0-0.239,0-0.479,0-0.718c1.85,0,3.699,0,5.549,0C15.992,11.768,15.992,12.008,15.992,12.247z M15.992,10.658
	c-1.85,0-3.699,0-5.549,0c0-0.24,0-0.479,0-0.719c1.85,0,3.699,0,5.549,0C15.992,10.179,15.992,10.418,15.992,10.658z M15.992,9.068
	c-1.85,0-3.699,0-5.549,0c0-0.239,0-0.479,0-0.719c1.85,0,3.699,0,5.549,0C15.992,8.59,15.992,8.829,15.992,9.068z M15.992,7.479
	h-5.549V6.762h5.549V7.479z"/>
</svg>
