<?xml version="1.0" encoding="utf-8"?>
<!-- Generator: Adobe Illustrator 16.0.0, SVG Export Plug-In . SVG Version: 6.00 Build 0)  -->
<!DOCTYPE svg PUBLIC "-//W3C//DTD SVG 1.1//EN" "http://www.w3.org/Graphics/SVG/1.1/DTD/svg11.dtd">
<svg version="1.1" id="分離模式" xmlns="http://www.w3.org/2000/svg" xmlns:xlink="http://www.w3.org/1999/xlink" x="0px"
	 y="0px" width="42.285px" height="39.371px" viewBox="0 0 42.285 39.371" enable-background="new 0 0 42.285 39.371"
	 xml:space="preserve">
<path fill-rule="evenodd" clip-rule="evenodd" d="M34.441,32.753c1.822,0,3.309,1.486,3.309,3.309s-1.486,3.309-3.309,3.309
	s-3.309-1.486-3.309-3.309S32.619,32.753,34.441,32.753L34.441,32.753z"/>
<path fill-rule="evenodd" clip-rule="evenodd" fill="#FFFFFF" d="M34.441,35.121c0.518,0,0.941,0.423,0.941,0.941
	s-0.424,0.942-0.941,0.942c-0.52,0-0.941-0.423-0.941-0.942S33.922,35.121,34.441,35.121L34.441,35.121z"/>
<path fill-rule="evenodd" clip-rule="evenodd" d="M15.275,32.753c-1.822,0-3.309,1.486-3.309,3.309s1.486,3.309,3.309,3.309
	s3.309-1.486,3.309-3.309S17.098,32.753,15.275,32.753z"/>
<circle fill-rule="evenodd" clip-rule="evenodd" fill="#FFFFFF" cx="15.275" cy="36.062" r="0.942"/>
<path fill-rule="evenodd" clip-rule="evenodd" d="M14.053,29.072h23.609c0.943,0,1.715,0.772,1.715,1.716l0,0
	c0,0.944-0.771,1.717-1.715,1.717H11.08c-0.943,0-1.717-0.772-1.717-1.717l0,0c0-0.266,0.063-0.52,0.172-0.745
	c0.006-0.011,0.012-0.023,0.018-0.035c0.014-0.028,0.027-0.055,0.043-0.082l4.096-7.094L6.326,4.832L1.271,3.493
	c-0.912-0.242-1.457-1.19-1.213-2.102l0,0C0.303,0.479,1.248-0.064,2.16,0.178l5.639,1.494c0.393,0.052,0.76,0.237,1.035,0.528
	C9.027,2.4,9.17,2.646,9.25,2.914l1.914,4.68c0.057-0.006,0.111-0.009,0.17-0.009H38.58h0.291h3.414l-6.504,16.027
	c-0.223,0.639-0.814,1.11-1.516,1.153c-0.002,0-0.002,0-0.004,0c-0.004,0-0.01,0-0.016,0c-0.002,0-0.006,0-0.008,0
	c-0.012,0-0.021,0.001-0.033,0.001c-0.002,0-0.002,0-0.004,0c-0.031,0-0.063,0.001-0.094,0h-17.57L14.053,29.072L14.053,29.072z"/>
<polygon fill-rule="evenodd" clip-rule="evenodd" fill="#FFFFFF" points="37.188,11.017 33,21.336 16.789,21.336 12.564,11.017 
	37.188,11.017 "/>
<path fill-rule="evenodd" clip-rule="evenodd" d="M37.361,13.172c0,0.628,0,1.257,0,1.886c-8.225,0-16.451,0-24.678,0
	c0-0.628,0-1.257,0-1.886C20.91,13.172,29.137,13.172,37.361,13.172L37.361,13.172z"/>
<polygon fill-rule="evenodd" clip-rule="evenodd" points="24.777,0 33.713,8.935 15.842,8.935 24.777,0 "/>
<path fill-rule="evenodd" clip-rule="evenodd" d="M37.361,17.242c0,0.628,0,1.257,0,1.886c-8.225,0-16.451,0-24.678,0
	c0-0.629,0-1.258,0-1.886C20.91,17.242,29.137,17.242,37.361,17.242L37.361,17.242z"/>
</svg>
