<svg version="1.1" id="" class="svg_icon_book" xmlns="http://www.w3.org/2000/svg" xmlns:xlink="http://www.w3.org/1999/xlink" x="0px"
	 y="0px" width="64px" height="64px" viewBox="0 0 64 64" enable-background="new 0 0 64 64" xml:space="preserve">
<path class="p1" d="M61,0c-0.406,0-0.793,0.082-1.146,0.228L59.848,0.23c-0.009,0.004-0.018,0.007-0.026,0.011L32,11.753L4.179,0.241
	C4.17,0.237,4.161,0.234,4.152,0.23L4.146,0.228C3.793,0.082,3.406,0,3,0C1.343,0,0,1.343,0,3v46c0,1.257,0.774,2.333,1.871,2.779
	l28.941,11.976C31.177,63.913,31.578,64,32,64s0.823-0.087,1.188-0.245l28.941-11.976C63.226,51.333,64,50.257,64,49V3
	C64,1.343,62.657,0,61,0z"/>
<polygon fill="#FFFFFF" points="29,56.512 6,46.995 6,7.488 29,17.005 "/>
<polygon fill="#FFFFFF" points="58,46.995 35,56.512 35,17.005 58,7.488 "/>
<path class="p2" d="M10.759,32.731l11,5C22.137,37.903,22.557,38,23,38c1.657,0,3-1.343,3-3c0-1.214-0.721-2.259-1.759-2.731l-11-5
	C12.863,27.097,12.443,27,12,27c-1.657,0-3,1.343-3,3C9,31.214,9.721,32.259,10.759,32.731z"/>
<path class="p3" d="M10.759,43.731l11,5C22.137,48.903,22.557,49,23,49c1.657,0,3-1.343,3-3c0-1.214-0.721-2.259-1.759-2.731l-11-5
	C12.863,38.097,12.443,38,12,38c-1.657,0-3,1.343-3,3C9,42.214,9.721,43.259,10.759,43.731z"/>
<path class="p4" d="M10.759,21.731l11,5C22.137,26.903,22.557,27,23,27c1.657,0,3-1.343,3-3c0-1.214-0.721-2.259-1.759-2.731l-11-5
	C12.863,16.097,12.443,16,12,16c-1.657,0-3,1.343-3,3C9,20.214,9.721,21.259,10.759,21.731z"/>
<path class="p5" d="M41,49c0.443,0,0.863-0.097,1.241-0.269l11-5C54.279,43.259,55,42.214,55,41c0-1.657-1.343-3-3-3
	c-0.443,0-0.863,0.097-1.241,0.269l-11,5C38.722,43.741,38,44.786,38,46C38,47.657,39.343,49,41,49z"/>
<path class="p6" d="M41,27c0.443,0,0.863-0.097,1.241-0.269l11-5C54.279,21.259,55,20.214,55,19c0-1.657-1.343-3-3-3
	c-0.443,0-0.863,0.097-1.241,0.269l-11,5C38.722,21.741,38,22.786,38,24C38,25.657,39.343,27,41,27z"/>
<path class="p7" d="M41,38c0.443,0,0.863-0.097,1.241-0.269l11-5C54.279,32.259,55,31.214,55,30c0-1.657-1.343-3-3-3
	c-0.443,0-0.863,0.097-1.241,0.269l-11,5C38.722,32.741,38,33.786,38,35C38,36.657,39.343,38,41,38z"/>
</svg>
