<?xml version="1.0" encoding="utf-8"?>
<!-- Generator: Adobe Illustrator 16.0.0, SVG Export Plug-In . SVG Version: 6.00 Build 0)  -->
<!DOCTYPE svg PUBLIC "-//W3C//DTD SVG 1.1//EN" "http://www.w3.org/Graphics/SVG/1.1/DTD/svg11.dtd">
<svg version="1.1" id="Layer_1" xmlns="http://www.w3.org/2000/svg" xmlns:xlink="http://www.w3.org/1999/xlink" x="0px" y="0px"
	 width="10.701px" height="22.118px" viewBox="0 0 10.701 22.118" enable-background="new 0 0 10.701 22.118" xml:space="preserve">
<path fill="#FFFFFF" d="M9.65,21.535l1.049-0.252c0.061-2.559-1.526-5.908-1.984-6.166l-1.113,0.268
	c0.238,1.01,0.515,2.018,0.843,3.025C8.785,19.457,9.183,20.5,9.65,21.535L9.65,21.535z"/>
<path fill="#FFFFFF" d="M7.826,21.975c-1.676,0.375-2.864,0.014-3.567-1.082c-0.167-0.299-0.333-0.598-0.5-0.896
	c-0.001-0.031-0.004-0.064-0.007-0.096c-2.438-4.924-3.826-10.1-3.749-15.627V4.271l0.001-0.014
	c0.004-0.316,0.014-0.635,0.027-0.955h0.008l0.002-0.057c0.127-1.297,1.023-2.158,2.686-2.584l0.975-0.234
	c0.059,1.127,0.18,2.229,0.351,3.314C4.217,4.785,4.43,5.816,4.68,6.836L3.212,7.189c0.375,3.037,1.103,5.943,2.121,8.74
	l1.449-0.348c0.243,1.037,0.525,2.068,0.858,3.09c0.334,1.027,0.722,2.051,1.173,3.064L7.826,21.975L7.826,21.975z"/>
<path fill="#FFFFFF" d="M5.5,6.639l0.959-0.23C6.863,5.586,6.364,1.207,5.48,0L4.539,0.227c0.053,1.152,0.174,2.277,0.348,3.383
	C5.05,4.639,5.258,5.646,5.5,6.639z"/>
</svg>
