<svg version="1.1" id="svgIconTag" class="svg_icon_tag" xmlns="http://www.w3.org/2000/svg" xmlns:xlink="http://www.w3.org/1999/xlink" x="0px" y="0px"
	 width="21.746px" height="21.714px" viewBox="0 0 21.746 21.714" enable-background="new 0 0 21.746 21.714" xml:space="preserve">
<path class="p1" fill-rule="evenodd" clip-rule="evenodd" d="M20.029,4.587c1.356,2.599,0.947,5.898-1.229,8.074l-9.053,9.053L0,11.967
	l9.053-9.053c2.188-2.188,5.51-2.59,8.115-1.208l-1.981,1.981c-0.673,0.027-1.338,0.298-1.852,0.812
	c-1.085,1.085-1.085,2.843,0,3.927c1.085,1.085,2.843,1.085,3.928,0c0.522-0.521,0.792-1.2,0.812-1.884L20.029,4.587L20.029,4.587z"
	/>
<rect class="r1" x="13.488" y="2.943" transform="matrix(0.7071 -0.7071 0.7071 0.7071 2.6113 13.8199)" fill-rule="evenodd" clip-rule="evenodd" width="8.999" height="1.629"/>
</svg>
