<svg version="1.1" id="logoTxt" xmlns="http://www.w3.org/2000/svg" xmlns:xlink="http://www.w3.org/1999/xlink" x="0px" y="0px" width="100%" height="100%" viewBox="0 0 250.563 121.134" enable-background="new 0 0 250.563 121.134" xml:space="preserve">
<path fill="#E60012" d="M34.207,73.008l-7.891,6.733c-2.771-3.728-5.591-5.593-8.462-5.593c-1.398,0-2.541,0.362-3.431,1.085
	c-0.89,0.724-1.334,1.54-1.334,2.447c0,0.908,0.317,1.766,0.953,2.576c0.863,1.08,3.468,3.397,7.813,6.954
	c4.064,3.288,6.53,5.36,7.395,6.218c2.159,2.11,3.69,4.127,4.593,6.052c0.901,1.926,1.353,4.029,1.353,6.31
	c0,4.44-1.587,8.107-4.762,11.001c-3.174,2.895-7.313,4.342-12.417,4.342c-3.986,0-7.459-0.944-10.418-2.833
	c-2.958-1.889-5.491-4.857-7.6-8.904l8.956-5.225c2.693,4.783,5.792,7.174,9.298,7.174c1.829,0,3.366-0.515,4.611-1.545
	c1.245-1.03,1.867-2.22,1.867-3.569c0-1.226-0.47-2.452-1.41-3.679c-0.94-1.226-3.011-3.103-6.213-5.629
	c-6.099-4.807-10.037-8.518-11.815-11.13c-1.779-2.612-2.668-5.218-2.668-7.818c0-3.753,1.479-6.972,4.438-9.658
	c2.958-2.686,6.609-4.029,10.952-4.029c2.794,0,5.454,0.625,7.98,1.876C28.524,67.416,31.261,69.697,34.207,73.008z"/>
<path fill="#E60012" d="M56.587,65.65h10.805l21.527,54.123H77.847l-4.379-11.148H50.629l-4.554,11.148H35.003L56.587,65.65z
	 M62.056,79.999L54.547,98.58h14.974L62.056,79.999z"/>
<path fill="#E60012" d="M142.757,75.162l-7.451,6.869c-5.069-5.18-10.771-7.771-17.107-7.771c-5.348,0-9.853,1.768-13.516,5.304
	c-3.662,3.536-5.493,7.894-5.493,13.075c0,3.609,0.812,6.813,2.433,9.613c1.622,2.799,3.916,4.996,6.882,6.592
	c2.965,1.596,6.26,2.394,9.884,2.394c3.092,0,5.918-0.558,8.478-1.676c2.56-1.117,5.373-3.148,8.44-6.095l7.223,7.288
	c-4.135,3.902-8.041,6.608-11.72,8.117c-3.678,1.508-7.876,2.263-12.594,2.263c-8.701,0-15.823-2.667-21.365-8.002
	c-5.543-5.335-8.314-12.172-8.314-20.512c0-5.396,1.262-10.191,3.786-14.386c2.524-4.194,6.139-7.566,10.845-10.118
	c4.705-2.551,9.772-3.827,15.201-3.827c4.616,0,9.062,0.943,13.336,2.829C135.978,69.002,139.661,71.685,142.757,75.162z"/>
<path fill="#E60012" d="M197.678,75.162l-7.451,6.869c-5.069-5.18-10.771-7.771-17.107-7.771c-5.348,0-9.853,1.768-13.516,5.304
	c-3.662,3.536-5.493,7.894-5.493,13.075c0,3.609,0.812,6.813,2.433,9.613c1.622,2.799,3.916,4.996,6.882,6.592
	c2.965,1.596,6.26,2.394,9.884,2.394c3.092,0,5.918-0.558,8.478-1.676c2.56-1.117,5.373-3.148,8.44-6.095l7.223,7.288
	c-4.135,3.902-8.041,6.608-11.72,8.117c-3.678,1.508-7.876,2.263-12.594,2.263c-8.701,0-15.823-2.667-21.365-8.002
	c-5.543-5.335-8.314-12.172-8.314-20.512c0-5.396,1.262-10.191,3.786-14.386c2.524-4.194,6.139-7.566,10.845-10.118
	c4.705-2.551,9.772-3.827,15.201-3.827c4.616,0,9.062,0.943,13.336,2.829C190.898,69.002,194.582,71.685,197.678,75.162z"/>
<path fill="#E60012" d="M218.23,65.65h10.805l21.527,54.123H239.49l-4.379-11.148h-22.839l-4.554,11.148h-11.072L218.23,65.65z
	 M223.699,79.999L216.19,98.58h14.974L223.699,79.999z"/>
<path fill="#E60012" d="M7.672,56.096h-7.12V2.415c0-0.784,0.392-1.176,1.177-1.176h51.204c1.031,0,1.548,0.495,1.548,1.486v53.372
	h-7.12v-2.105H7.672V56.096z M16.65,8.358H8.663c-0.702,0-1.032,0.331-0.991,0.991v25.324c1.362-0.289,2.683-0.763,3.963-1.424
	c3.178-1.939,4.85-6.15,5.016-12.631V8.358z M31.634,8.358h-7.863v12.259c-0.207,5.573-1.053,9.969-2.539,13.188
	c-1.898,3.55-5.263,5.965-10.092,7.244l-3.468-4.396V46.87H47.36v-7.306h-12.26c-2.312,0-3.467-1.176-3.467-3.529V8.358z
	 M47.36,32.444V9.349c-0.042-0.66-0.393-0.991-1.053-0.991h-7.306v22.166c0,1.28,0.619,1.919,1.857,1.919H47.36z"/>
<path fill="#E60012" d="M64.759,29.41l-3.157-6.996l7.43-2.477V3.777h7.368V17.46l11.454-3.9V0h7.368v11.021l14.674-4.954
	l4.892,2.229v24.271c0,1.486-0.455,2.684-1.362,3.591c-2.766,2.684-7.678,3.777-14.735,3.282l-0.124-7.492
	c0.206,0.042,0.434,0.083,0.681,0.124c3.756,0.579,6.212,0.248,7.368-0.991c0.536-0.536,0.805-1.362,0.805-2.477V16.222
	c-0.083-0.372-0.207-0.639-0.371-0.805c-0.289-0.165-0.579-0.186-0.867-0.062L95.222,19.07v24.829h-7.368V21.546l-11.454,3.901
	v19.875c-0.042,1.404,0.124,2.312,0.495,2.724c0.578,0.66,1.63,1.011,3.158,1.053h26.686c1.362,0,2.435-0.186,3.22-0.557
	c0.659-0.207,1.196-0.702,1.609-1.486c0.33-0.743,0.495-3.158,0.495-7.244l7.492,0.805c0.041,6.935-0.517,11.145-1.672,12.631
	c-1.238,1.486-2.374,2.373-3.405,2.662c-1.197,0.33-2.993,0.496-5.387,0.496H76.338c-1.404-0.042-2.746-0.393-4.025-1.053
	c-1.114-0.579-1.94-1.445-2.477-2.601c-0.578-1.28-0.847-2.498-0.805-3.653V27.924L64.759,29.41z"/>
<path fill="#E60012" d="M150.761,27.552h-18.513c-2.353,0-3.529-1.197-3.529-3.591V3.529h7.368v15.417
	c0,0.826,0.392,1.238,1.176,1.238h13.498V0.248h7.368v19.937h13.436c0.825-0.041,1.238-0.454,1.238-1.238V3.529h7.368v20.432
	c0,2.394-1.197,3.591-3.591,3.591h-18.451v21.113h14.674c0.825-0.042,1.238-0.455,1.238-1.238V32.01h7.368v20.432
	c0,2.394-1.197,3.591-3.591,3.591h-47.057c-2.353,0-3.529-1.198-3.529-3.591V32.01h7.368v15.417c0,0.825,0.392,1.238,1.177,1.238
	h14.983V27.552z"/>
<path fill="#E60012" d="M221.098,57.953l-4.705-4.272c-0.496,1.114-1.013,2.187-1.549,3.219l-5.324-2.105v2.043h-7.12v-22.6
	c0-0.578-0.31-0.867-0.929-0.867h-3.529c-0.042,0.166-0.063,0.372-0.063,0.619c-0.083,8.173-0.929,15.809-2.538,22.909l-7.802-0.805
	c2.229-8.75,3.344-19.256,3.344-31.515V0.248h7.368v14.117h4.024V0.743h7.368v13.622h2.477v7.121h-13.869v3.096
	c-0.042,0.495-0.063,1.052-0.063,1.671h9.598c1.154,0,1.733,0.558,1.733,1.672v22.476c1.526-3.426,2.601-6.687,3.22-9.783
	c0.743-3.921,1.135-8.792,1.176-14.612V2.415c0-1.362,0.682-2.043,2.044-2.043h28.729v7.368h-22.476
	c-0.619,0-0.929,0.31-0.929,0.929v4.83h20.309l4.829,2.786c-0.578,4.541-1.795,9.928-3.652,16.16
	c-1.28,3.303-3.241,7.058-5.882,11.269c2.724,2.89,6.459,5.944,11.206,9.164l-6.315,5.139c-3.922-3.138-7.079-6.027-9.473-8.668
	C229.043,52.607,225.308,55.477,221.098,57.953z M221.283,28.11v0.124c0,8.297-1.238,15.872-3.715,22.723
	c3.55-2.146,6.873-4.768,9.969-7.863c-2.023-3.26-3.777-7.141-5.263-11.64C221.902,30.339,221.571,29.224,221.283,28.11z
	 M229.456,30.4c0.825,2.353,1.754,4.542,2.786,6.563c2.725-4.623,4.645-9.989,5.759-16.098h-10.836
	C227.661,24.375,228.424,27.552,229.456,30.4z"/>
</svg>